PathFileType	4	(X/Y/Z)	/Users/niels/Desktop/University/Third Semester/Perception and Action/Exam/Gymnastics Motion Tracking/Code for Gym Tracking/Scripts/Analyzed Data/Start Salto/st_salto_good_id13_1_Sports2D/st_salto_good_id13_1_Sports2D_px_person00.trc
DataRate	CameraRate	NumFrames	NumMarkers	Units	OrigDataRate	OrigDataStartFrame	OrigNumFrames
29.82456140350877	29.82456140350877	8	22	m	29.82456140350877	21	171
Frame#	Time	Hip			RHip			RKnee			RAnkle			RBigToe			RSmallToe			RHeel			LHip			LKnee			LAnkle			LBigToe			LSmallToe			LHeel			Neck			Head			Nose			RShoulder			RElbow			RWrist			LShoulder			LElbow			LWrist		
		X1	Y1	Z1	X2	Y2	Z2	X3	Y3	Z3	X4	Y4	Z4	X5	Y5	Z5	X6	Y6	Z6	X7	Y7	Z7	X8	Y8	Z8	X9	Y9	Z9	X10	Y10	Z10	X11	Y11	Z11	X12	Y12	Z12	X13	Y13	Z13	X14	Y14	Z14	X15	Y15	Z15	X16	Y16	Z16	X17	Y17	Z17	X18	Y18	Z18	X19	Y19	Z19	X20	Y20	Z20	X21	Y21	Z21	X22	Y22	Z22
21	0.7041176470588235	0.3010157326169693	-0.5626364852267521	0.0	0.2884845122202006	-0.5642472965097124	0.0	0.40017681719013615	-0.6545068081641012	0.0	0.45401267289281305	-0.7861841758429423	0.0	0.5145337623550895	-0.7816479745934629	0.0	0.5027383823956305	-0.7933569374027158	0.0	0.4485850954156395	-0.8065731084023784	0.0	0.3250418742105419	-0.5645579311742616	0.0	0.4219700467510626	-0.6554431924616091	0.0	0.46726969488978987	-0.776533149338764	0.0	0.5266957344257448	-0.7748998746464362	0.0	0.5197502208006365	-0.7746362598727538	0.0	0.4655832297420299	-0.7973374758796712	0.0	0.39466117443514354	-0.4182068026067197	0.0	0.4609028260957294	-0.35498944664247517	0.0	0.45619924463858796	-0.41176670875110266	0.0	0.36750613872458926	-0.4081849280871757	0.0	0.4508879720000274	-0.4181840068526205	0.0	0.5321985585741211	-0.4063075213316608	0.0	0.40876639505670104	-0.43562215745874994	0.0	0.497854152302245	-0.44900312694601774	0.0	0.5722640895835576	-0.44674999600376414	0.0
22	0.7376470588235294	0.3316774757344303	-0.5704909265946515	0.0	0.3201203127714095	-0.5735383907371058	0.0	0.42923826531254905	-0.6643147035635374	0.0	0.4780780710778469	-0.7971624210355435	0.0	0.5384606898701371	-0.7953524275164432	0.0	0.5268314753990155	-0.805579297119726	0.0	0.47216340261996165	-0.8163708532307486	0.0	0.3537233602583458	-0.5742044455268018	0.0	0.4497270243096532	-0.6652076593702092	0.0	0.4877224816070162	-0.7895608371237577	0.0	0.5455345552400894	-0.7911562067535189	0.0	0.5390968785932869	-0.7900199219950016	0.0	0.48413535963666043	-0.8090362139303321	0.0	0.42581255542500146	-0.4238531685404263	0.0	0.49004447209202256	-0.3640289395915449	0.0	0.48679788665329093	-0.4191057925047152	0.0	0.3994394266993766	-0.41515700176495846	0.0	0.48409338163704585	-0.4150266945657668	0.0	0.564375051957675	-0.39495793874375607	0.0	0.4387072161918814	-0.44134976308825685	0.0	0.5281117659053456	-0.44259385362427156	0.0	0.6011225853458969	-0.42959092250239556	0.0
23	0.7711764705882354	0.36107862328427537	-0.5777533702094961	0.0	0.34978019413024997	-0.5820979537300258	0.0	0.4557197239607036	-0.6744535304994778	0.0	0.4937086898127808	-0.8085496633206135	0.0	0.5527625118652678	-0.8113745720480237	0.0	0.5409773762868441	-0.8197016817690558	0.0	0.4866053826343191	-0.8260935408687661	0.0	0.38116631922832905	-0.5829755168624141	0.0	0.4749974598610814	-0.6750108824535842	0.0	0.5029468477392471	-0.8026758994986105	0.0	0.5582992168509798	-0.808348534451843	0.0	0.5525553214586806	-0.8061108987599194	0.0	0.49690619713453493	-0.8200611253300648	0.0	0.45437812524025906	-0.4281760110928602	0.0	0.5164141347413114	-0.37055444291981166	0.0	0.5144399844736781	-0.4237203000663839	0.0	0.42909872676296096	-0.42109218784559765	0.0	0.5134851435901236	-0.41171360321655676	0.0	0.5925408943084627	-0.38431924793404976	0.0	0.46653234583327924	-0.4451593619097264	0.0	0.5544983695015302	-0.43585638758799033	0.0	0.6256953151190269	-0.41320104058080037	0.0
24	0.8047058823529412	0.3888125179360387	-0.5839757071543019	0.0	0.37763323123610315	-0.5893223656160023	0.0	0.4799547187179532	-0.6841210966963411	0.0	0.5030847230233664	-0.819235011697274	0.0	0.5597080406058729	-0.8270938607612885	0.0	0.5477075269294123	-0.8335712694547407	0.0	0.49450975936939784	-0.8349228152093906	0.0	0.40681952819560213	-0.590350930853257	0.0	0.4973952220269569	-0.684298859899608	0.0	0.5128065183115929	-0.8147112392983739	0.0	0.5651707856593198	-0.8244711517489816	0.0	0.5599129088624732	-0.8213750323987462	0.0	0.504022115139778	-0.8297470360749589	0.0	0.48029604695869876	-0.4314153662039198	0.0	0.5407899452835957	-0.37469705329417147	0.0	0.5394533457932371	-0.4259122281454259	0.0	0.45676752059566905	-0.4259050714497656	0.0	0.5398990008830612	-0.40841395818578985	0.0	0.6175106393606608	-0.37482545879957324	0.0	0.49191796138383254	-0.44735607061189214	0.0	0.5774758068630704	-0.429278293708043	0.0	0.647020048256955	-0.39824385582105026	0.0
25	0.8382352941176471	0.41410042730868973	-0.5887073522800135	0.0	0.4035560180447994	-0.5947781885454556	0.0	0.5019276597075799	-0.6925953292881833	0.0	0.5084837289518808	-0.8282121216648806	0.0	0.5617946022256535	-0.8403170869059708	0.0	0.5495969273322469	-0.8453272748404953	0.0	0.4985418012228843	-0.8421266348145681	0.0	0.4298273785099316	-0.5959381275169859	0.0	0.5164039285953129	-0.6924267964202041	0.0	0.5180403337384334	-0.8246495767572439	0.0	0.5672612614187007	-0.8379211476093116	0.0	0.5620495442354987	-0.8344699100373315	0.0	0.5065720362844472	-0.8376074526316346	0.0	0.5034193292307931	-0.43377570526722775	0.0	0.5633296723822189	-0.3769738501995637	0.0	0.5619578087430416	-0.4264487832740789	0.0	0.4823508553812268	-0.42949268964026904	0.0	0.5637765543603811	-0.40527772782616406	0.0	0.6399084813377556	-0.36673323445953554	0.0	0.5142667209473958	-0.44825916375891833	0.0	0.5971991935232821	-0.42323925984574345	0.0	0.6657295219039501	-0.3852972260091932	0.0
26	0.871764705882353	0.4362389527679379	-0.5915863762942498	0.0	0.42714736197838293	-0.5981718052084822	0.0	0.521287339451675	-0.699390628009843	0.0	0.5116756047146257	-0.8347381248503234	0.0	0.5611032917623676	-0.8498013949615671	0.0	0.5486106776883315	-0.8538695636660609	0.0	0.5005636409995867	-0.8471756967015993	0.0	0.4495808958656953	-0.5994207534259668	0.0	0.5317511292665947	-0.6988570696494957	0.0	0.520015282640856	-0.8317646354453944	0.0	0.5662655975810224	-0.8478276695181739	0.0	0.5606553545399678	-0.844476993421142	0.0	0.5061953243224394	-0.8433069332418194	0.0	0.5237278797540796	-0.4352321776643466	0.0	0.5839068992021024	-0.3779096484065807	0.0	0.5820435564605386	-0.4259289906978241	0.0	0.5055759053151079	-0.4317372379990639	0.0	0.5853171535073278	-0.40243097894959234	0.0	0.6602655281188222	-0.3601484285765666	0.0	0.5331815564261058	-0.44796350003486557	0.0	0.6137862285894145	-0.41780814211853057	0.0	0.6819300540559218	-0.3748137893007663	0.0
27	0.9052941176470589	0.4551597529479024	-0.5924921925617801	0.0	0.4480566161801313	-0.5993684501631295	0.0	0.5376552242956899	-0.7043202741684743	0.0	0.5137280147877658	-0.8384863207276226	0.0	0.5590309567476514	-0.8553994341950057	0.0	0.5460807032932186	-0.8590129132418248	0.0	0.5014450475268728	-0.8498927507175829	0.0	0.4662573561735169	-0.6006377626725349	0.0	0.543768433399872	-0.7033646531872159	0.0	0.5202981095262509	-0.8357934893027008	0.0	0.5639570266879123	-0.8540217041761533	0.0	0.5577210352021201	-0.8509933889583696	0.0	0.5044729539699263	-0.8467300474550185	0.0	0.5415948491165696	-0.43555586172906036	0.0	0.6026504044283731	-0.37780303124633813	0.0	0.6000386589788509	-0.424440106886027	0.0	0.5264345849745588	-0.43255640589846744	0.0	0.6048141684020033	-0.3999291586824835	0.0	0.6791258749699434	-0.35503914569282835	0.0	0.5488966910390285	-0.4463859372186112	0.0	0.6277170251815706	-0.41283923940826883	0.0	0.6953844326302712	-0.36715602401757125	0.0
28	0.9388235294117647	0.4714742416595709	-0.5915337274549964	0.0	0.4662961689921925	-0.598371961113186	0.0	0.5509374026751978	-0.7074005444536272	0.0	0.5151726978796661	-0.8395790644078927	0.0	0.5564718247293028	-0.8577081521502388	0.0	0.5431128400959595	-0.86120934953675	0.0	0.501458426923298	-0.8504537138265525	0.0	0.48067729376818696	-0.5995701827743809	0.0	0.5531812276244091	-0.7060251728831335	0.0	0.5201693381563234	-0.8369197885156499	0.0	0.5619110998638305	-0.856721250361942	0.0	0.5550744426764628	-0.8540027932665687	0.0	0.5024879548801557	-0.8479616369167065	0.0	0.5577706474801336	-0.4344271811427665	0.0	0.6201070959546434	-0.37669539632011967	0.0	0.6165411733592673	-0.4216791690525869	0.0	0.5453898656976909	-0.4318626962464266	0.0	0.6228101322546359	-0.39773256880017194	0.0	0.6970941621897127	-0.35129814319487795	0.0	0.5622009336123079	-0.44337454666767656	0.0	0.6398911489852754	-0.408239898277651	0.0	0.7056409213205664	-0.3627926348466447	0.0
